<mxfile host="Electron" agent="Mozilla/5.0 (Macintosh; Intel Mac OS X 10_15_7) AppleWebKit/537.36 (KHTML, like Gecko) draw.io/24.7.17 Chrome/128.0.6613.36 Electron/32.0.1 Safari/537.36" version="24.7.17">
  <diagram name="페이지-1" id="vBrJet00-n5aYz7-OZe-">
    <mxGraphModel dx="4284" dy="2023" grid="1" gridSize="10" guides="1" tooltips="1" connect="1" arrows="1" fold="1" page="1" pageScale="1" pageWidth="827" pageHeight="1169" math="0" shadow="0">
      <root>
        <mxCell id="0" />
        <mxCell id="1" parent="0" />
        <mxCell id="nBQzF7uJghXuGluJfPmf-78" value="" style="rounded=0;whiteSpace=wrap;html=1;" vertex="1" parent="1">
          <mxGeometry x="-50" y="70" width="930" height="860" as="geometry" />
        </mxCell>
        <mxCell id="nBQzF7uJghXuGluJfPmf-77" value="" style="rounded=0;whiteSpace=wrap;html=1;" vertex="1" parent="1">
          <mxGeometry y="120" width="820" height="750" as="geometry" />
        </mxCell>
        <mxCell id="nBQzF7uJghXuGluJfPmf-3" style="edgeStyle=orthogonalEdgeStyle;rounded=0;orthogonalLoop=1;jettySize=auto;html=1;entryX=0.5;entryY=0;entryDx=0;entryDy=0;" edge="1" parent="1" source="nBQzF7uJghXuGluJfPmf-1" target="nBQzF7uJghXuGluJfPmf-2">
          <mxGeometry relative="1" as="geometry" />
        </mxCell>
        <mxCell id="nBQzF7uJghXuGluJfPmf-1" value="&lt;font style=&quot;font-size: 15px;&quot;&gt;마리 퀴리, 아인슈타인, 이휘소, 장영실, 간디,&lt;/font&gt;&lt;span style=&quot;font-size: 15px; background-color: initial;&quot;&gt;&amp;nbsp;처칠, 세종대왕, 김구,&amp;nbsp;&lt;/span&gt;&lt;span style=&quot;font-size: 15px; background-color: initial;&quot;&gt;피카소, 살바도르 달리, 김홍도, 신윤복, 로댕, 도나텔로&lt;/span&gt;" style="rounded=0;whiteSpace=wrap;html=1;" vertex="1" parent="1">
          <mxGeometry x="134" y="160" width="560" height="80" as="geometry" />
        </mxCell>
        <mxCell id="nBQzF7uJghXuGluJfPmf-7" style="edgeStyle=orthogonalEdgeStyle;rounded=0;orthogonalLoop=1;jettySize=auto;html=1;entryX=0.5;entryY=0;entryDx=0;entryDy=0;exitX=0.5;exitY=1;exitDx=0;exitDy=0;" edge="1" parent="1" source="nBQzF7uJghXuGluJfPmf-2" target="nBQzF7uJghXuGluJfPmf-4">
          <mxGeometry relative="1" as="geometry" />
        </mxCell>
        <mxCell id="nBQzF7uJghXuGluJfPmf-8" style="edgeStyle=orthogonalEdgeStyle;rounded=0;orthogonalLoop=1;jettySize=auto;html=1;entryX=0.5;entryY=0;entryDx=0;entryDy=0;" edge="1" parent="1" source="nBQzF7uJghXuGluJfPmf-2" target="nBQzF7uJghXuGluJfPmf-5">
          <mxGeometry relative="1" as="geometry" />
        </mxCell>
        <mxCell id="nBQzF7uJghXuGluJfPmf-9" style="edgeStyle=orthogonalEdgeStyle;rounded=0;orthogonalLoop=1;jettySize=auto;html=1;entryX=0.5;entryY=0;entryDx=0;entryDy=0;exitX=0.5;exitY=1;exitDx=0;exitDy=0;" edge="1" parent="1" source="nBQzF7uJghXuGluJfPmf-2" target="nBQzF7uJghXuGluJfPmf-6">
          <mxGeometry relative="1" as="geometry" />
        </mxCell>
        <mxCell id="nBQzF7uJghXuGluJfPmf-2" value="&lt;font style=&quot;font-size: 20px;&quot;&gt;직업&lt;/font&gt;" style="ellipse;whiteSpace=wrap;html=1;aspect=fixed;fillColor=#dae8fc;strokeColor=#6c8ebf;" vertex="1" parent="1">
          <mxGeometry x="374" y="280" width="80" height="80" as="geometry" />
        </mxCell>
        <mxCell id="nBQzF7uJghXuGluJfPmf-16" style="edgeStyle=orthogonalEdgeStyle;rounded=0;orthogonalLoop=1;jettySize=auto;html=1;" edge="1" parent="1" source="nBQzF7uJghXuGluJfPmf-4" target="nBQzF7uJghXuGluJfPmf-10">
          <mxGeometry relative="1" as="geometry" />
        </mxCell>
        <mxCell id="nBQzF7uJghXuGluJfPmf-17" style="edgeStyle=orthogonalEdgeStyle;rounded=0;orthogonalLoop=1;jettySize=auto;html=1;entryX=0.5;entryY=0;entryDx=0;entryDy=0;" edge="1" parent="1" source="nBQzF7uJghXuGluJfPmf-4" target="nBQzF7uJghXuGluJfPmf-11">
          <mxGeometry relative="1" as="geometry" />
        </mxCell>
        <mxCell id="nBQzF7uJghXuGluJfPmf-4" value="&lt;font style=&quot;font-size: 20px;&quot;&gt;과학자&lt;/font&gt;" style="ellipse;whiteSpace=wrap;html=1;aspect=fixed;fillColor=#e5f0ff;strokeColor=#6c8ebf;" vertex="1" parent="1">
          <mxGeometry x="110" y="420" width="80" height="80" as="geometry" />
        </mxCell>
        <mxCell id="nBQzF7uJghXuGluJfPmf-49" style="edgeStyle=orthogonalEdgeStyle;rounded=0;orthogonalLoop=1;jettySize=auto;html=1;entryX=0.5;entryY=0;entryDx=0;entryDy=0;" edge="1" parent="1" source="nBQzF7uJghXuGluJfPmf-5" target="nBQzF7uJghXuGluJfPmf-48">
          <mxGeometry relative="1" as="geometry" />
        </mxCell>
        <mxCell id="nBQzF7uJghXuGluJfPmf-5" value="&lt;font style=&quot;font-size: 20px;&quot;&gt;정치가&lt;/font&gt;" style="ellipse;whiteSpace=wrap;html=1;aspect=fixed;fillColor=#e5f0ff;strokeColor=#6c8ebf;" vertex="1" parent="1">
          <mxGeometry x="374" y="420" width="80" height="80" as="geometry" />
        </mxCell>
        <mxCell id="nBQzF7uJghXuGluJfPmf-20" style="edgeStyle=orthogonalEdgeStyle;rounded=0;orthogonalLoop=1;jettySize=auto;html=1;entryX=0.5;entryY=0;entryDx=0;entryDy=0;" edge="1" parent="1" source="nBQzF7uJghXuGluJfPmf-6" target="nBQzF7uJghXuGluJfPmf-14">
          <mxGeometry relative="1" as="geometry" />
        </mxCell>
        <mxCell id="nBQzF7uJghXuGluJfPmf-21" style="edgeStyle=orthogonalEdgeStyle;rounded=0;orthogonalLoop=1;jettySize=auto;html=1;entryX=0.5;entryY=0;entryDx=0;entryDy=0;" edge="1" parent="1" source="nBQzF7uJghXuGluJfPmf-6" target="nBQzF7uJghXuGluJfPmf-15">
          <mxGeometry relative="1" as="geometry" />
        </mxCell>
        <mxCell id="nBQzF7uJghXuGluJfPmf-6" value="&lt;font style=&quot;font-size: 20px;&quot;&gt;예술가&lt;/font&gt;" style="ellipse;whiteSpace=wrap;html=1;aspect=fixed;fillColor=#e5f0ff;strokeColor=#6c8ebf;" vertex="1" parent="1">
          <mxGeometry x="640" y="420" width="80" height="80" as="geometry" />
        </mxCell>
        <mxCell id="nBQzF7uJghXuGluJfPmf-10" value="&lt;font style=&quot;font-size: 20px;&quot;&gt;과학&lt;/font&gt;" style="ellipse;whiteSpace=wrap;html=1;aspect=fixed;fillColor=#f5f9ff;strokeColor=#6c8ebf;" vertex="1" parent="1">
          <mxGeometry x="40" y="560" width="80" height="80" as="geometry" />
        </mxCell>
        <mxCell id="nBQzF7uJghXuGluJfPmf-11" value="&lt;font style=&quot;font-size: 20px;&quot;&gt;공학&lt;/font&gt;" style="ellipse;whiteSpace=wrap;html=1;aspect=fixed;fillColor=#f5f9ff;strokeColor=#6c8ebf;" vertex="1" parent="1">
          <mxGeometry x="180" y="560" width="80" height="80" as="geometry" />
        </mxCell>
        <mxCell id="nBQzF7uJghXuGluJfPmf-14" value="&lt;font style=&quot;font-size: 20px;&quot;&gt;화가&lt;/font&gt;" style="ellipse;whiteSpace=wrap;html=1;aspect=fixed;fillColor=#f5f9ff;strokeColor=#6c8ebf;" vertex="1" parent="1">
          <mxGeometry x="580" y="560" width="80" height="80" as="geometry" />
        </mxCell>
        <mxCell id="nBQzF7uJghXuGluJfPmf-15" value="&lt;font style=&quot;font-size: 20px;&quot;&gt;조각가&lt;/font&gt;" style="ellipse;whiteSpace=wrap;html=1;aspect=fixed;fillColor=#f5f9ff;strokeColor=#6c8ebf;" vertex="1" parent="1">
          <mxGeometry x="700" y="560" width="80" height="80" as="geometry" />
        </mxCell>
        <mxCell id="nBQzF7uJghXuGluJfPmf-22" value="" style="shape=table;startSize=0;container=1;collapsible=0;childLayout=tableLayout;fontSize=16;" vertex="1" parent="1">
          <mxGeometry x="40" y="650" width="80" height="120" as="geometry" />
        </mxCell>
        <mxCell id="nBQzF7uJghXuGluJfPmf-23" value="" style="shape=tableRow;horizontal=0;startSize=0;swimlaneHead=0;swimlaneBody=0;strokeColor=inherit;top=0;left=0;bottom=0;right=0;collapsible=0;dropTarget=0;fillColor=none;points=[[0,0.5],[1,0.5]];portConstraint=eastwest;fontSize=16;" vertex="1" parent="nBQzF7uJghXuGluJfPmf-22">
          <mxGeometry width="80" height="40" as="geometry" />
        </mxCell>
        <mxCell id="nBQzF7uJghXuGluJfPmf-24" value="마리 퀴리" style="shape=partialRectangle;html=1;whiteSpace=wrap;connectable=0;strokeColor=inherit;overflow=hidden;fillColor=none;top=0;left=0;bottom=0;right=0;pointerEvents=1;fontSize=16;" vertex="1" parent="nBQzF7uJghXuGluJfPmf-23">
          <mxGeometry width="80" height="40" as="geometry">
            <mxRectangle width="80" height="40" as="alternateBounds" />
          </mxGeometry>
        </mxCell>
        <mxCell id="nBQzF7uJghXuGluJfPmf-27" value="" style="shape=tableRow;horizontal=0;startSize=0;swimlaneHead=0;swimlaneBody=0;strokeColor=inherit;top=0;left=0;bottom=0;right=0;collapsible=0;dropTarget=0;fillColor=none;points=[[0,0.5],[1,0.5]];portConstraint=eastwest;fontSize=16;" vertex="1" parent="nBQzF7uJghXuGluJfPmf-22">
          <mxGeometry y="40" width="80" height="40" as="geometry" />
        </mxCell>
        <mxCell id="nBQzF7uJghXuGluJfPmf-28" value="아인슈타인" style="shape=partialRectangle;html=1;whiteSpace=wrap;connectable=0;strokeColor=inherit;overflow=hidden;fillColor=none;top=0;left=0;bottom=0;right=0;pointerEvents=1;fontSize=16;" vertex="1" parent="nBQzF7uJghXuGluJfPmf-27">
          <mxGeometry width="80" height="40" as="geometry">
            <mxRectangle width="80" height="40" as="alternateBounds" />
          </mxGeometry>
        </mxCell>
        <mxCell id="nBQzF7uJghXuGluJfPmf-46" style="shape=tableRow;horizontal=0;startSize=0;swimlaneHead=0;swimlaneBody=0;strokeColor=inherit;top=0;left=0;bottom=0;right=0;collapsible=0;dropTarget=0;fillColor=none;points=[[0,0.5],[1,0.5]];portConstraint=eastwest;fontSize=16;" vertex="1" parent="nBQzF7uJghXuGluJfPmf-22">
          <mxGeometry y="80" width="80" height="40" as="geometry" />
        </mxCell>
        <mxCell id="nBQzF7uJghXuGluJfPmf-47" value="이휘소" style="shape=partialRectangle;html=1;whiteSpace=wrap;connectable=0;strokeColor=inherit;overflow=hidden;fillColor=none;top=0;left=0;bottom=0;right=0;pointerEvents=1;fontSize=16;" vertex="1" parent="nBQzF7uJghXuGluJfPmf-46">
          <mxGeometry width="80" height="40" as="geometry">
            <mxRectangle width="80" height="40" as="alternateBounds" />
          </mxGeometry>
        </mxCell>
        <mxCell id="nBQzF7uJghXuGluJfPmf-37" value="" style="shape=table;startSize=0;container=1;collapsible=0;childLayout=tableLayout;fontSize=16;" vertex="1" parent="1">
          <mxGeometry x="180" y="650" width="80" height="40" as="geometry" />
        </mxCell>
        <mxCell id="nBQzF7uJghXuGluJfPmf-38" value="" style="shape=tableRow;horizontal=0;startSize=0;swimlaneHead=0;swimlaneBody=0;strokeColor=inherit;top=0;left=0;bottom=0;right=0;collapsible=0;dropTarget=0;fillColor=none;points=[[0,0.5],[1,0.5]];portConstraint=eastwest;fontSize=16;" vertex="1" parent="nBQzF7uJghXuGluJfPmf-37">
          <mxGeometry width="80" height="40" as="geometry" />
        </mxCell>
        <mxCell id="nBQzF7uJghXuGluJfPmf-39" value="장영실" style="shape=partialRectangle;html=1;whiteSpace=wrap;connectable=0;strokeColor=inherit;overflow=hidden;fillColor=none;top=0;left=0;bottom=0;right=0;pointerEvents=1;fontSize=16;" vertex="1" parent="nBQzF7uJghXuGluJfPmf-38">
          <mxGeometry width="80" height="40" as="geometry">
            <mxRectangle width="80" height="40" as="alternateBounds" />
          </mxGeometry>
        </mxCell>
        <mxCell id="nBQzF7uJghXuGluJfPmf-48" value="&lt;font style=&quot;font-size: 20px;&quot;&gt;정치가&lt;/font&gt;" style="ellipse;whiteSpace=wrap;html=1;aspect=fixed;fillColor=#f5f9ff;strokeColor=#6c8ebf;" vertex="1" parent="1">
          <mxGeometry x="374" y="560" width="80" height="80" as="geometry" />
        </mxCell>
        <mxCell id="nBQzF7uJghXuGluJfPmf-50" value="" style="shape=table;startSize=0;container=1;collapsible=0;childLayout=tableLayout;fontSize=16;" vertex="1" parent="1">
          <mxGeometry x="374" y="650" width="80" height="160" as="geometry" />
        </mxCell>
        <mxCell id="nBQzF7uJghXuGluJfPmf-51" value="" style="shape=tableRow;horizontal=0;startSize=0;swimlaneHead=0;swimlaneBody=0;strokeColor=inherit;top=0;left=0;bottom=0;right=0;collapsible=0;dropTarget=0;fillColor=none;points=[[0,0.5],[1,0.5]];portConstraint=eastwest;fontSize=16;" vertex="1" parent="nBQzF7uJghXuGluJfPmf-50">
          <mxGeometry width="80" height="40" as="geometry" />
        </mxCell>
        <mxCell id="nBQzF7uJghXuGluJfPmf-52" value="세종대왕" style="shape=partialRectangle;html=1;whiteSpace=wrap;connectable=0;strokeColor=inherit;overflow=hidden;fillColor=none;top=0;left=0;bottom=0;right=0;pointerEvents=1;fontSize=16;" vertex="1" parent="nBQzF7uJghXuGluJfPmf-51">
          <mxGeometry width="80" height="40" as="geometry">
            <mxRectangle width="80" height="40" as="alternateBounds" />
          </mxGeometry>
        </mxCell>
        <mxCell id="nBQzF7uJghXuGluJfPmf-53" value="" style="shape=tableRow;horizontal=0;startSize=0;swimlaneHead=0;swimlaneBody=0;strokeColor=inherit;top=0;left=0;bottom=0;right=0;collapsible=0;dropTarget=0;fillColor=none;points=[[0,0.5],[1,0.5]];portConstraint=eastwest;fontSize=16;" vertex="1" parent="nBQzF7uJghXuGluJfPmf-50">
          <mxGeometry y="40" width="80" height="40" as="geometry" />
        </mxCell>
        <mxCell id="nBQzF7uJghXuGluJfPmf-54" value="김구" style="shape=partialRectangle;html=1;whiteSpace=wrap;connectable=0;strokeColor=inherit;overflow=hidden;fillColor=none;top=0;left=0;bottom=0;right=0;pointerEvents=1;fontSize=16;" vertex="1" parent="nBQzF7uJghXuGluJfPmf-53">
          <mxGeometry width="80" height="40" as="geometry">
            <mxRectangle width="80" height="40" as="alternateBounds" />
          </mxGeometry>
        </mxCell>
        <mxCell id="nBQzF7uJghXuGluJfPmf-55" style="shape=tableRow;horizontal=0;startSize=0;swimlaneHead=0;swimlaneBody=0;strokeColor=inherit;top=0;left=0;bottom=0;right=0;collapsible=0;dropTarget=0;fillColor=none;points=[[0,0.5],[1,0.5]];portConstraint=eastwest;fontSize=16;" vertex="1" parent="nBQzF7uJghXuGluJfPmf-50">
          <mxGeometry y="80" width="80" height="40" as="geometry" />
        </mxCell>
        <mxCell id="nBQzF7uJghXuGluJfPmf-56" value="간디" style="shape=partialRectangle;html=1;whiteSpace=wrap;connectable=0;strokeColor=inherit;overflow=hidden;fillColor=none;top=0;left=0;bottom=0;right=0;pointerEvents=1;fontSize=16;" vertex="1" parent="nBQzF7uJghXuGluJfPmf-55">
          <mxGeometry width="80" height="40" as="geometry">
            <mxRectangle width="80" height="40" as="alternateBounds" />
          </mxGeometry>
        </mxCell>
        <mxCell id="nBQzF7uJghXuGluJfPmf-57" style="shape=tableRow;horizontal=0;startSize=0;swimlaneHead=0;swimlaneBody=0;strokeColor=inherit;top=0;left=0;bottom=0;right=0;collapsible=0;dropTarget=0;fillColor=none;points=[[0,0.5],[1,0.5]];portConstraint=eastwest;fontSize=16;" vertex="1" parent="nBQzF7uJghXuGluJfPmf-50">
          <mxGeometry y="120" width="80" height="40" as="geometry" />
        </mxCell>
        <mxCell id="nBQzF7uJghXuGluJfPmf-58" value="처칠" style="shape=partialRectangle;html=1;whiteSpace=wrap;connectable=0;strokeColor=inherit;overflow=hidden;fillColor=none;top=0;left=0;bottom=0;right=0;pointerEvents=1;fontSize=16;" vertex="1" parent="nBQzF7uJghXuGluJfPmf-57">
          <mxGeometry width="80" height="40" as="geometry">
            <mxRectangle width="80" height="40" as="alternateBounds" />
          </mxGeometry>
        </mxCell>
        <mxCell id="nBQzF7uJghXuGluJfPmf-59" value="" style="shape=table;startSize=0;container=1;collapsible=0;childLayout=tableLayout;fontSize=16;" vertex="1" parent="1">
          <mxGeometry x="580" y="650" width="80" height="160" as="geometry" />
        </mxCell>
        <mxCell id="nBQzF7uJghXuGluJfPmf-60" value="" style="shape=tableRow;horizontal=0;startSize=0;swimlaneHead=0;swimlaneBody=0;strokeColor=inherit;top=0;left=0;bottom=0;right=0;collapsible=0;dropTarget=0;fillColor=none;points=[[0,0.5],[1,0.5]];portConstraint=eastwest;fontSize=16;" vertex="1" parent="nBQzF7uJghXuGluJfPmf-59">
          <mxGeometry width="80" height="40" as="geometry" />
        </mxCell>
        <mxCell id="nBQzF7uJghXuGluJfPmf-61" value="김홍도" style="shape=partialRectangle;html=1;whiteSpace=wrap;connectable=0;strokeColor=inherit;overflow=hidden;fillColor=none;top=0;left=0;bottom=0;right=0;pointerEvents=1;fontSize=16;" vertex="1" parent="nBQzF7uJghXuGluJfPmf-60">
          <mxGeometry width="80" height="40" as="geometry">
            <mxRectangle width="80" height="40" as="alternateBounds" />
          </mxGeometry>
        </mxCell>
        <mxCell id="nBQzF7uJghXuGluJfPmf-62" value="" style="shape=tableRow;horizontal=0;startSize=0;swimlaneHead=0;swimlaneBody=0;strokeColor=inherit;top=0;left=0;bottom=0;right=0;collapsible=0;dropTarget=0;fillColor=none;points=[[0,0.5],[1,0.5]];portConstraint=eastwest;fontSize=16;" vertex="1" parent="nBQzF7uJghXuGluJfPmf-59">
          <mxGeometry y="40" width="80" height="40" as="geometry" />
        </mxCell>
        <mxCell id="nBQzF7uJghXuGluJfPmf-63" value="신윤복" style="shape=partialRectangle;html=1;whiteSpace=wrap;connectable=0;strokeColor=inherit;overflow=hidden;fillColor=none;top=0;left=0;bottom=0;right=0;pointerEvents=1;fontSize=16;" vertex="1" parent="nBQzF7uJghXuGluJfPmf-62">
          <mxGeometry width="80" height="40" as="geometry">
            <mxRectangle width="80" height="40" as="alternateBounds" />
          </mxGeometry>
        </mxCell>
        <mxCell id="nBQzF7uJghXuGluJfPmf-64" style="shape=tableRow;horizontal=0;startSize=0;swimlaneHead=0;swimlaneBody=0;strokeColor=inherit;top=0;left=0;bottom=0;right=0;collapsible=0;dropTarget=0;fillColor=none;points=[[0,0.5],[1,0.5]];portConstraint=eastwest;fontSize=16;" vertex="1" parent="nBQzF7uJghXuGluJfPmf-59">
          <mxGeometry y="80" width="80" height="40" as="geometry" />
        </mxCell>
        <mxCell id="nBQzF7uJghXuGluJfPmf-65" value="피카소" style="shape=partialRectangle;html=1;whiteSpace=wrap;connectable=0;strokeColor=inherit;overflow=hidden;fillColor=none;top=0;left=0;bottom=0;right=0;pointerEvents=1;fontSize=16;" vertex="1" parent="nBQzF7uJghXuGluJfPmf-64">
          <mxGeometry width="80" height="40" as="geometry">
            <mxRectangle width="80" height="40" as="alternateBounds" />
          </mxGeometry>
        </mxCell>
        <mxCell id="nBQzF7uJghXuGluJfPmf-66" style="shape=tableRow;horizontal=0;startSize=0;swimlaneHead=0;swimlaneBody=0;strokeColor=inherit;top=0;left=0;bottom=0;right=0;collapsible=0;dropTarget=0;fillColor=none;points=[[0,0.5],[1,0.5]];portConstraint=eastwest;fontSize=16;" vertex="1" parent="nBQzF7uJghXuGluJfPmf-59">
          <mxGeometry y="120" width="80" height="40" as="geometry" />
        </mxCell>
        <mxCell id="nBQzF7uJghXuGluJfPmf-67" value="달리" style="shape=partialRectangle;html=1;whiteSpace=wrap;connectable=0;strokeColor=inherit;overflow=hidden;fillColor=none;top=0;left=0;bottom=0;right=0;pointerEvents=1;fontSize=16;" vertex="1" parent="nBQzF7uJghXuGluJfPmf-66">
          <mxGeometry width="80" height="40" as="geometry">
            <mxRectangle width="80" height="40" as="alternateBounds" />
          </mxGeometry>
        </mxCell>
        <mxCell id="nBQzF7uJghXuGluJfPmf-68" value="" style="shape=table;startSize=0;container=1;collapsible=0;childLayout=tableLayout;fontSize=16;" vertex="1" parent="1">
          <mxGeometry x="700" y="650" width="80" height="80" as="geometry" />
        </mxCell>
        <mxCell id="nBQzF7uJghXuGluJfPmf-69" value="" style="shape=tableRow;horizontal=0;startSize=0;swimlaneHead=0;swimlaneBody=0;strokeColor=inherit;top=0;left=0;bottom=0;right=0;collapsible=0;dropTarget=0;fillColor=none;points=[[0,0.5],[1,0.5]];portConstraint=eastwest;fontSize=16;" vertex="1" parent="nBQzF7uJghXuGluJfPmf-68">
          <mxGeometry width="80" height="40" as="geometry" />
        </mxCell>
        <mxCell id="nBQzF7uJghXuGluJfPmf-70" value="로댕" style="shape=partialRectangle;html=1;whiteSpace=wrap;connectable=0;strokeColor=inherit;overflow=hidden;fillColor=none;top=0;left=0;bottom=0;right=0;pointerEvents=1;fontSize=16;" vertex="1" parent="nBQzF7uJghXuGluJfPmf-69">
          <mxGeometry width="80" height="40" as="geometry">
            <mxRectangle width="80" height="40" as="alternateBounds" />
          </mxGeometry>
        </mxCell>
        <mxCell id="nBQzF7uJghXuGluJfPmf-71" value="" style="shape=tableRow;horizontal=0;startSize=0;swimlaneHead=0;swimlaneBody=0;strokeColor=inherit;top=0;left=0;bottom=0;right=0;collapsible=0;dropTarget=0;fillColor=none;points=[[0,0.5],[1,0.5]];portConstraint=eastwest;fontSize=16;" vertex="1" parent="nBQzF7uJghXuGluJfPmf-68">
          <mxGeometry y="40" width="80" height="40" as="geometry" />
        </mxCell>
        <mxCell id="nBQzF7uJghXuGluJfPmf-72" value="도나텔로" style="shape=partialRectangle;html=1;whiteSpace=wrap;connectable=0;strokeColor=inherit;overflow=hidden;fillColor=none;top=0;left=0;bottom=0;right=0;pointerEvents=1;fontSize=16;" vertex="1" parent="nBQzF7uJghXuGluJfPmf-71">
          <mxGeometry width="80" height="40" as="geometry">
            <mxRectangle width="80" height="40" as="alternateBounds" />
          </mxGeometry>
        </mxCell>
      </root>
    </mxGraphModel>
  </diagram>
</mxfile>
